<?xml version="1.0" standalone="no"?>
<!DOCTYPE svg PUBLIC "-//W3C//DTD SVG 20010904//EN"
 "http://www.w3.org/TR/2001/REC-SVG-20010904/DTD/svg10.dtd">
<svg version="1.0" xmlns="http://www.w3.org/2000/svg"
 width="456.000000pt" height="456.000000pt" viewBox="0 0 456.000000 456.000000"
 preserveAspectRatio="xMidYMid meet">

<g transform="translate(0.000000,456.000000) scale(0.100000,-0.100000)"
fill="#000000" stroke="none">
<path d="M0 2280 l0 -2280 2280 0 2280 0 0 2280 0 2280 -2280 0 -2280 0 0
-2280z m1551 400 c26 -41 133 -212 238 -379 l191 -304 0 381 0 382 80 0 80 0
0 -500 0 -500 -93 0 -92 0 -240 379 -240 379 -3 -379 -2 -379 -80 0 -80 0 0
500 0 501 97 -3 97 -3 47 -75z m1319 5 l0 -75 -180 0 -180 0 0 -135 0 -135
168 -2 167 -3 3 -72 3 -73 -171 0 -170 0 0 -145 0 -145 195 0 195 0 0 -70 0
-70 -278 0 -278 0 -1 492 c-1 271 1 496 3 500 3 4 122 8 265 8 l259 0 0 -75z
m800 0 l0 -75 -140 0 -140 0 0 -425 0 -425 -85 0 -85 0 0 425 0 424 -137 3
-138 3 -3 59 c-2 32 -1 65 2 72 4 12 71 14 366 14 l360 0 0 -75z m-2554 -773
c53 -42 54 -103 2 -147 -75 -63 -188 9 -158 101 7 19 21 41 33 49 29 20 97 19
123 -3z"/>
</g>
</svg>
