<?xml version="1.0" standalone="no"?>
<!DOCTYPE svg PUBLIC "-//W3C//DTD SVG 20010904//EN"
 "http://www.w3.org/TR/2001/REC-SVG-20010904/DTD/svg10.dtd">
<svg version="1.0" xmlns="http://www.w3.org/2000/svg"
 width="456.000000pt" height="456.000000pt" viewBox="0 0 456.000000 456.000000"
 preserveAspectRatio="xMidYMid meet">

<g transform="translate(0.000000,456.000000) scale(0.100000,-0.100000)"
fill="#000000" stroke="none">
<path d="M0 2280 l0 -2280 2280 0 2280 0 0 2280 0 2280 -2280 0 -2280 0 0
-2280z m2680 1335 c853 -97 1526 -503 1690 -1020 31 -99 39 -284 15 -389 -40
-182 -132 -336 -294 -497 -303 -299 -776 -502 -1361 -584 -181 -26 -588 -31
-790 -11 -704 72 -1295 345 -1592 735 -63 83 -143 246 -163 331 -52 224 -9
446 124 648 185 278 494 492 931 643 255 88 510 137 855 163 99 8 453 -4 585
-19z"/>
<path d="M1408 3425 c-356 -104 -641 -254 -838 -441 -208 -199 -300 -386 -300
-613 0 -130 18 -209 76 -326 103 -211 393 -465 677 -593 l68 -31 -27 42 c-84
137 -113 262 -79 345 67 159 288 163 474 8 55 -46 126 -130 159 -188 l26 -47
32 67 c53 116 119 172 201 172 144 0 314 -210 390 -482 l27 -97 23 81 c97 333
292 543 456 489 50 -17 111 -83 144 -157 15 -35 30 -64 33 -64 3 0 21 26 40
58 55 91 163 192 255 238 73 36 85 39 165 39 78 0 91 -3 128 -28 107 -71 113
-218 15 -395 l-35 -64 103 53 c185 95 335 207 456 341 102 112 168 235 204
378 41 162 12 358 -77 517 -165 296 -532 546 -1011 688 -158 46 -162 46 -125
-7 79 -115 135 -255 152 -379 35 -254 -106 -478 -299 -479 -99 0 -185 63 -237
175 -34 75 -41 114 -74 429 -16 159 -31 290 -33 292 -1 1 -30 -33 -64 -77
l-63 -79 -153 0 -152 0 -59 75 c-32 41 -62 75 -66 75 -3 0 -19 -123 -34 -272
-32 -324 -39 -364 -77 -444 -90 -190 -273 -230 -417 -91 -110 106 -149 287
-102 473 22 84 81 217 128 287 44 65 45 67 25 67 -10 -1 -70 -16 -135 -35z"/>
</g>
</svg>
